<?xml version="1.0" encoding="UTF-8" standalone="no"?>
<svg
   width="16"
   height="16"
   fill="currentColor"
   class="bi bi-arrows-expand"
   viewBox="0 0 16 16"
   version="1.1"
   id="svg4"
   sodipodi:docname="arrows-scroll.svg"
   inkscape:version="1.2.2 (732a01da63, 2022-12-09)"
   xmlns:inkscape="http://www.inkscape.org/namespaces/inkscape"
   xmlns:sodipodi="http://sodipodi.sourceforge.net/DTD/sodipodi-0.dtd"
   xmlns="http://www.w3.org/2000/svg"
   xmlns:svg="http://www.w3.org/2000/svg">
  <defs
     id="defs8" />
  <sodipodi:namedview
     id="namedview6"
     pagecolor="#ffffff"
     bordercolor="#111111"
     borderopacity="1"
     inkscape:showpageshadow="0"
     inkscape:pageopacity="0"
     inkscape:pagecheckerboard="1"
     inkscape:deskcolor="#d1d1d1"
     showgrid="false"
     inkscape:zoom="14.75"
     inkscape:cx="8"
     inkscape:cy="2.5762712"
     inkscape:window-width="1920"
     inkscape:window-height="1017"
     inkscape:window-x="-8"
     inkscape:window-y="-8"
     inkscape:window-maximized="1"
     inkscape:current-layer="svg4" />
  <path
     fill-rule="evenodd"
     d="m 7.646,0.146 c 0.1953639,-0.19585838 0.5126361,-0.19585838 0.708,0 l 2,2 C 10.826,2.6179998 10.118,3.3259998 9.646,2.854 L 8.5,1.707 V 5.5 c 0,0.6666664 -1,0.6666664 -1,0 V 1.707 L 6.354,2.854 C 5.8820002,3.3259998 5.1740002,2.6179998 5.646,2.146 Z M 8,10 c 0.2761424,0 0.5,0.223858 0.5,0.5 v 3.793 l 1.146,-1.147 c 0.472,-0.472 1.18,0.236 0.708,0.708 l -2,2 c -0.1953639,0.195858 -0.5126361,0.195858 -0.708,0 l -2,-2 C 5.1740002,13.382 5.8820002,12.674 6.354,13.146 L 7.5,14.293 V 10.5 C 7.5,10.223858 7.7238576,10 8,10 Z"
     id="path2"
     sodipodi:nodetypes="ccsccssccscssccsccsccss"
     style="fill:#eebbee;fill-opacity:1" />
</svg>
