<?xml version="1.0" encoding="UTF-8" standalone="no"?>
<svg
   width="16"
   height="16"
   fill="#eebbee"
   class="bi bi-grid-3x3-gap"
   viewBox="0 0 16 16"
   version="1.1"
   id="svg1"
   sodipodi:docname="draw-grid.svg"
   inkscape:export-filename="draw-brush.svg"
   inkscape:export-xdpi="96"
   inkscape:export-ydpi="96"
   xmlns:inkscape="http://www.inkscape.org/namespaces/inkscape"
   xmlns:sodipodi="http://sodipodi.sourceforge.net/DTD/sodipodi-0.dtd"
   xmlns="http://www.w3.org/2000/svg"
   xmlns:svg="http://www.w3.org/2000/svg">
  <defs
     id="defs1" />
  <sodipodi:namedview
     id="namedview1"
     pagecolor="#ffffff"
     bordercolor="#111111"
     borderopacity="1"
     inkscape:showpageshadow="0"
     inkscape:pageopacity="0"
     inkscape:pagecheckerboard="1"
     inkscape:deskcolor="#d1d1d1" />
  <path
     d="M 7,12 V 10 C 7,9.447715 6.5522847,9 6,9 H 4 C 3.4477153,9 3,9.447715 3,10 v 2 c 0,0.552285 0.4477153,1 1,1 h 2 c 0.5522847,0 1,-0.447715 1,-1 M 7,6 V 4 C 7,3.4477153 6.5522847,3 6,3 H 4 C 3.4477153,3 3,3.4477153 3,4 V 6 C 3,6.5522847 3.4477153,7 4,7 H 6 C 6.5522847,7 7,6.5522847 7,6 m 6,6 V 10 C 13,9.447715 12.552285,9 12,9 H 10 C 9.4477153,9 9,9.447715 9,10 v 2 c 0,0.552285 0.4477153,1 1,1 h 2 c 0.552285,0 1,-0.447715 1,-1 M 13,6 V 4 C 13,3.4477153 12.552285,3 12,3 H 10 C 9.4477153,3 9,3.4477153 9,4 v 2 c 0,0.5522847 0.4477153,1 1,1 h 2 c 0.552285,0 1,-0.4477153 1,-1 M 6,4 V 6 H 4 V 4 Z m 6,0 V 6 H 10 V 4 Z m -6,6 v 2 H 4 v -2 z m 6,0 v 2 h -2 v -2 z"
     id="path1"
     sodipodi:nodetypes="csssssssccsssssssccsssssssccsssssssccccccccccccccccccccc" />
</svg>
