<?xml version="1.0" encoding="UTF-8" standalone="no"?>
<svg
   width="16"
   height="16"
   fill="#eebbee"
   class="bi bi-grid-3x3-gap"
   viewBox="0 0 16 16"
   version="1.1"
   id="svg1"
   sodipodi:docname="draw-grid.svg"
   xmlns:inkscape="http://www.inkscape.org/namespaces/inkscape"
   xmlns:sodipodi="http://sodipodi.sourceforge.net/DTD/sodipodi-0.dtd"
   xmlns="http://www.w3.org/2000/svg"
   xmlns:svg="http://www.w3.org/2000/svg">
  <defs
     id="defs1" />
  <sodipodi:namedview
     id="namedview1"
     pagecolor="#ffffff"
     bordercolor="#111111"
     borderopacity="1"
     inkscape:showpageshadow="0"
     inkscape:pageopacity="0"
     inkscape:pagecheckerboard="1"
     inkscape:deskcolor="#d1d1d1" />
  <path
     d="M 5,14 V 12 C 5,11.447715 4.5522847,11 4,11 H 2 c -0.5522847,0 -1,0.447715 -1,1 v 2 c 0,0.552285 0.4477153,1 1,1 h 2 c 0.5522847,0 1,-0.447715 1,-1 M 10,9 V 7 C 10,6.4477153 9.5522847,6 9,6 H 7 C 6.4477153,6 6,6.4477153 6,7 v 2 c 0,0.5522847 0.4477153,1 1,1 h 2 c 0.5522847,0 1,-0.4477153 1,-1 M 14,2 V 4 H 12 V 2 Z M 9,7 V 9 H 7 V 7 Z m -5,5 v 2 H 2 V 12 Z M 12,1 c -0.552285,0 -1,0.4477153 -1,1 v 2 c 0,0.5522847 0.447715,1 1,1 h 2 c 0.552285,0 1,-0.4477153 1,-1 V 2 C 15,1.4477153 14.552285,1 14,1 Z"
     id="path1"
     sodipodi:nodetypes="csssssssccsssssssccccccccccccccccsssssssss" />
</svg>
