<?xml version="1.0" encoding="UTF-8" standalone="no"?>
<svg
   width="16"
   height="16"
   fill="currentColor"
   class="bi bi-mouse2"
   viewBox="0 0 16 16"
   version="1.1"
   id="svg4"
   sodipodi:docname="mouse_left.svg"
   inkscape:version="1.2.2 (732a01da63, 2022-12-09)"
   xmlns:inkscape="http://www.inkscape.org/namespaces/inkscape"
   xmlns:sodipodi="http://sodipodi.sourceforge.net/DTD/sodipodi-0.dtd"
   xmlns="http://www.w3.org/2000/svg"
   xmlns:svg="http://www.w3.org/2000/svg">
  <defs
     id="defs8" />
  <sodipodi:namedview
     id="namedview6"
     pagecolor="#ffffff"
     bordercolor="#111111"
     borderopacity="1"
     inkscape:showpageshadow="0"
     inkscape:pageopacity="0"
     inkscape:pagecheckerboard="1"
     inkscape:deskcolor="#d1d1d1"
     showgrid="false"
     inkscape:zoom="32"
     inkscape:cx="12.09375"
     inkscape:cy="6.09375"
     inkscape:window-width="1920"
     inkscape:window-height="1017"
     inkscape:window-x="-8"
     inkscape:window-y="-8"
     inkscape:window-maximized="1"
     inkscape:current-layer="svg4" />
  <path
     style="fill:#eebbee;stroke:none;stroke-width:1px;stroke-linecap:butt;stroke-linejoin:miter;stroke-opacity:1;fill-opacity:1"
     d="M 3.71875,7.109375 C 3.828125,3.265625 4.265625,3.0625 4.265625,3.0625 c 0,0 0.625,-1.578125 1.78125,-1.921875 1.15625,-0.34375 1.84375,-0.40625 1.84375,-0.40625 L 7.796875,7.34375 Z"
     id="path2090" />
  <path
     d="M 3,5.188 C 3,2.341 5.22,0 8,0 c 2.78,0 5,2.342 5,5.188 v 5.625 C 13,13.658 10.78,16 8,16 5.22,16 3,13.658 3,10.812 V 5.189 Z M 7.5,1.033 C 5.541,1.289 4,3.035 4,5.188 v 1.6340339 h 3.5 z m 1,0 V 6.8220339 H 12 V 5.187 C 12,3.035 10.459,1.289 8.5,1.033 Z M 12,7.8220339 H 4 V 10.813 C 4,13.145 5.81,15 8,15 c 2.19,0 4,-1.855 4,-4.188 z"
     id="path2"
     sodipodi:nodetypes="sssssscscsccccccscccsssc"
     style="stroke:none;stroke-opacity:1;fill:#eebbee;fill-opacity:1" />
</svg>
